# xmcd
#
# Track frame offsets: 
#        150
#        23904
#        45764
#        63391
#        115343
#        165830
#        201764
#
# Disc length: 3350 seconds
#
# Revision: 7
# Processed by: cddbd v1.5.2PL0 Copyright (c) Steve Scherf et al.
# Submitted via: ExactAudioCopy v0.99pb5
#
DISCID=4d0d1407
DTITLE=Julian Sas - Delivered [CD2)
DYEAR=2002
DGENRE=Blues-Rock
TTITLE0=When I Boogie
TTITLE1=Am I Losing My Way
TTITLE2=Mean Old City
TTITLE3=I Wonder Who
TTITLE4=Hey Joe
TTITLE5=Blues For The Lost And Found
TTITLE6=Travelling Home - Bullfrog Blues - Boogie Jam
EXTD=YEAR: 2002
EXTT0=
EXTT1=
EXTT2=
EXTT3=
EXTT4=
EXTT5=
EXTT6=
PLAYORDER=
